<?xml version="1.0" encoding="UTF-8"?>
<svg id="_레이어_1" data-name="레이어 1" xmlns="http://www.w3.org/2000/svg" viewBox="0 0 1000 1000">
  <defs>
    <style>
      .cls-1 {
        fill: #adc0ff;
      }

      .cls-2 {
        fill: #50f;
      }
    </style>
  </defs>
  <g>
    <path class="cls-2" d="M251.3,471.6c-1.28.74-1.57,2.45-.63,3.59,1.57,1.9,3.33,4.44,4.81,7.64,1.74,3.78,2.52,7.26,2.88,9.91.13,1,.86,1.81,1.85,2.02,1.64.36,3.65,1.01,5.75,2.19,3.3,1.87,5.48,4.31,6.84,6.25.86,1.23,2.61,1.41,3.66.34.54-.54,1.08-1.17,1.59-1.9,3.2-4.57,2.81-9.64,2.6-12.3-.15-1.97-.53-6.22-3.44-10.64-1.05-1.6-4.3-6.06-10.43-8.22-1.7-.6-6.27-2.14-11.69-.53-1.48.44-2.75,1.03-3.8,1.63Z"/>
    <path class="cls-2" d="M195.92,506.46c1.1-1.12,3.03-.87,3.71.54,3.54,7.34,10.09,13.69,18.17,15.7,1.3.32,2.75.29,4,.86,1.76.81,1.62,2.83,1.77,4.47.21,2.34,1.17,4.58,2.33,6.59.63,1.1,1.34,2.14,2.02,3.21,1.1,1.71,2.63,4.01,1.09,5.98-1.05,1.35-2.81,2.1-4.42,2.56-3.34.94-7.12,1.22-10.57.97-2.93-.2-5.83-.79-8.6-1.78-4.24-1.5-8.09-4.06-10.87-7.62-1.33-1.7-4.94-6.81-5.17-14.49-.06-2.13.04-7.47,3.53-13.16.96-1.56,2-2.83,2.99-3.84Z"/>
    <ellipse class="cls-2" cx="227.33" cy="492.94" rx="21.92" ry="22.93" transform="translate(-212.27 174.48) rotate(-29.32)"/>
    <path class="cls-2" d="M234.78,524.51c2.2-.16,4.41-.9,6.43-1.83,4.31-1.98,8.29-4.86,11.03-8.73,1.35-1.91,2.38-4.06,2.97-6.33.3-1.15.49-2.34.55-3.53,0-.01,0-.02,0-.04.1-2.01,2.19-3.31,4-2.42,1.45.72,2.8,1.7,3.91,2.64,5.3,4.51,8.76,11.92,8.4,18.87-.36,6.95-4.05,13.57-9.98,17.2-5.93,3.63-14.3,3.71-20.49.54-5.06-2.59-8.85-7.5-10.16-13.01-.41-1.71.93-3.3,2.69-3.33.22,0,.43-.01.65-.03Z"/>
    <path class="cls-2" d="M291.74,498.82c-.65-.18-1.34-.19-1.9.16-.67.4-1,1.18-1.36,1.88-1.73,3.38-4.94,5.8-8.39,7.39-1.26.58-2.68,1.19-3.19,2.48-.47,1.21.06,2.55.53,3.76,1.3,3.33,2.16,6.89,1.96,10.46-.11,2.04-.57,4.04-1.12,6.01-.26.94-.54,1.99-.1,2.87.42.85,1.38,1.27,2.3,1.5,2.51.61,5.19.21,7.59-.75,8.61-3.42,12.48-12.93,11.5-21.72-.31-2.8-1.03-5.61-2.26-8.16-1.11-2.29-2.96-5.16-5.57-5.88Z"/>
    <path class="cls-2" d="M220.29,555.74c-.4-2.1,1.45-2.51,3.1-2.64,3.59-.29,6.54-1.9,9.07-4.46,1.15-1.16,2.15-2.55,3.78-2.51.93.02,1.94.48,2.66,1,.78.55,1.53,1.1,2.39,1.53,3.68,1.87,8.43,2.01,12.49,1.74.92-.06,1.83-.17,2.73-.31.55-.09,1.18-.14,1.71.08,1.31.56,1.46,2.96,1.44,4.14-.04,1.79-.62,3.54-1.41,5.13-.74,1.48-1.68,2.87-2.73,4.15-3.46,4.21-8.18,6.57-13.67,6.63-5.77.07-11.36-2.3-15.64-6.11-1.59-1.42-3.1-3.03-4.26-4.85-.5-.78-1.41-2.16-1.67-3.52Z"/>
    <path class="cls-2" d="M266.19,550.91c0-1.07.64-2.03,1.64-2.42,1.22-.48,2.68-1.21,4.15-2.34,1.88-1.44,3.17-3.05,4.03-4.39.63-.99,1.84-1.44,2.96-1.1.89.27,1.89.5,2.99.63,3.51.43,6.48-.29,8.5-1.03,1.07-.39,2.27-.08,2.97.81,1.06,1.36,2.23,3.25,2.99,5.68,2.06,6.62-.5,12.26-1.28,13.91-.81,1.72-3.32,6.82-9.31,9.55-6.52,2.97-12.58,1.04-14.41.36-2.7-1-4.73-2.45-6.13-3.69-.85-.75-1.14-1.95-.69-2.98.78-1.78,1.14-3.32,1.32-4.47.21-1.33.23-2.87.26-5.89,0-.97.01-1.86,0-2.64Z"/>
    <path class="cls-1" d="M253.36,575.31c2.28-1.24,5.08-1.07,7.1.56.8.64,1.71,1.29,2.74,1.88,2.76,1.6,5.48,2.37,7.72,2.73,2.39.38,4.35,2.03,5.15,4.31,0,.02.01.03.02.05,1.11,3.13,2.33,4.04,4.28,8.16,1.53,3.23,1.61,4.45,1.63,4.94.01.43.06,2.62-1.27,4.94,0,0-1.38,2.42-4.21,3.97-5.14,2.83-16.65.24-24.06-7.09-4.98-4.93-6.97-10.88-7.76-15.39-.55-3.14,1.29-6.26,4.33-7.22.53-.17,1.07-.36,1.63-.58.98-.39,1.88-.82,2.69-1.26Z"/>
    <path class="cls-1" d="M310.23,516.67c-1.45-.11-2.67,1.08-2.6,2.54.06,1.3.03,2.73-.12,4.26-.39,3.83-1.48,7.02-2.58,9.43-.57,1.25-.03,2.74,1.23,3.28,1.4.6,2.52,1.22,3.34,1.74,1.91,1.19,3.34,2.47,6.21,5.03,1.93,1.73,2.81,2.64,4.66,3.77,1.82,1.12,2.95,1.79,4.22,1.6,2.52-.38,3.87-3.86,4.33-5.06,2.37-6.13-.13-12.34-1.13-14.46-1.01-2.15-3.37-6.2-8.16-9.12-3.5-2.13-6.94-2.82-9.39-3.01Z"/>
    <path class="cls-2" d="M216.73,465.35c-1.18,0-2.23-.95-2.44-2.3-.45-2.91-1.33-5.74-2.55-8.16-.67-1.33-.24-3.02.95-3.77s2.71-.27,3.38,1.06c1.49,2.97,2.56,6.4,3.11,9.92.23,1.51-.67,2.94-2.02,3.2-.14.03-.29.04-.43.04Z"/>
    <path class="cls-2" d="M206.95,455.54c-1.16,0-2.2-.82-2.43-2-.26-1.34.61-2.65,1.95-2.91,3.82-.75,7.51-2.15,10.67-4.04,1.18-.7,2.7-.32,3.4.86.7,1.18.32,2.7-.86,3.4-3.65,2.18-7.89,3.79-12.25,4.65-.16.03-.32.05-.48.05Z"/>
    <path class="cls-1" d="M235.14,463.54c3.29,1.15,6.77,2.3,10.18,1.59,2.22-.46,4.2-1.67,6.32-2.48,6.93-2.66,14.94-.79,21.23,3.14,1.81,1.13,4.31,2.39,5.84.9,1.06-1.02.88-2.77.38-4.16-1.82-5.01-6.59-8.4-11.55-10.35-11.11-4.37-24.37-2.75-34.1,4.16-1.18.84-3.78,2.46-3.44,4.1s3.79,2.64,5.09,3.09c.02,0,.03.01.05.02Z"/>
    <path class="cls-1" d="M201.49,465.29c-1.32-3.48-3.69-6.88-5.47-9.08-8.58-10.57-25.65-16.38-38.12-9.25-1.79,1.02-7.79,4.58-10.24,11.84-2.76,8.21.92,15.48,2.27,18.15,2.73,5.38,7.54,8.27,16.67,14.33,2.26,1.5,4.61,2.87,6.92,4.32,1.74,1.09,3.44,2.4,4.4,4.22,2.96,5.61-5.29,14.05-7.55,18.88-2.16,4.61-3.09,9.63-3.3,14.7-.46,11.47,3.14,23,8.58,33,1.82,3.35,3.92,6.55,6.28,9.55,1.33,1.69,2.75,3.32,4.24,4.87,3.35,3.48,7.03,6.68,11.08,9.32,2.05,1.34,4.19,2.53,6.41,3.54,3.46,1.57,7.07.27,6.35-3.98-.88-5.22-2.91-10.18-4.5-15.21-1.23-3.89-2.4-7.8-3.52-11.72-.76-2.68-1.14-5.41-2.55-7.86-1.73-2.99-4.38-4.67-7.04-6.71-8.43-6.44-13.71-18.25-12.21-28.86.8-5.65,3.4-11,6.92-15.45.9-1.14,1.98-2.18,2.93-3.29,1.78-2.08,3.43-4.13,4.4-6.72,1.05-2.76,1.13-5.54,1.31-8.45.06-.91.16-1.83.41-2.71.64-2.35,1.83-4.51,3.37-6.39.89-1.08,1.9-2.1,2.44-3.4.94-2.26.54-4.98-.47-7.64Z"/>
    <circle class="cls-2" cx="170.95" cy="473.59" r="3.42"/>
  </g>
  <g>
    <path class="cls-2" d="M439.61,486.61c-4.78-2.73-9.95-4.04-15.5-4.04-5.51.02-10.72,1.32-15.49,4.04-.76.43-1.48.91-2.18,1.4-.71-.49-1.43-.97-2.19-1.4-4.78-2.73-10-4.06-15.5-4.04-5.48.02-10.72,1.32-15.49,4.04-8.98,5.12-14.55,14.73-14.55,25.08v47c0,6.59,5.56,11.93,12.42,11.93s12.42-5.34,12.42-11.93v-47c0-1.95.94-3.74,2.41-4.58.86-.49,1.63-.68,2.62-.69h.18s.18,0,.18,0c.93-.02,1.77.2,2.62.69,1.46.83,2.4,2.63,2.4,4.58v47c0,6.59,5.56,11.93,12.42,11.93.02,0,.03,0,.05,0s.03,0,.05,0c6.86,0,12.42-5.34,12.42-11.93v-47c0-1.95.94-3.74,2.41-4.58.86-.49,1.64-.68,2.62-.69h.18s.18,0,.18,0c.96-.02,1.77.2,2.62.69,1.46.83,2.4,2.63,2.4,4.58v47c0,6.59,5.56,11.93,12.42,11.93s12.42-5.34,12.42-11.93v-47c0-10.35-5.58-19.96-14.56-25.09Z"/>
    <path class="cls-2" d="M843.82,482.57c-6.86,0-12.42,5.18-12.42,11.57v64.91c0,6.39,5.56,11.57,12.42,11.57s12.42-5.18,12.42-11.57v-64.91c0-6.39-5.56-11.57-12.42-11.57Z"/>
    <path class="cls-2" d="M615.98,541.04c-1.93-4.51-4.32-8.26-6.92-11.38,4.97-4.9,7.99-11.88,7.99-19.89,0-16.55-10.31-27.25-26.27-27.25h-26.64c-6.62,0-12.39,4.79-12.82,11.13-.47,6.95,5.26,12.72,12.39,12.72h24.56c.9,0,1.84.03,2.65.47,2.38,1.3,1.98,5.22-.39,6.06-.57.2-1.53.24-2.13.24h-14.11c-4.22,0-8.16-.09-10.88-.09-6.86,0-12.12,5.05-12.12,11.64,0,.06,0,.13,0,.19,0,.06,0,.13,0,.19,0,6.59,5.56,11.93,12.42,11.93h9.3c11.49,1.18,20.36,5.83,22.55,23.12.77,6.05,6.12,10.49,12.31,10.49,1.96,0,4-.44,5.96-1.48,4.64-2.46,6.98-7.59,6.29-12.64-.82-5.96-2.28-11.08-4.16-15.47Z"/>
    <path class="cls-2" d="M527.97,482.55c-6.86,0-12.42,5.39-12.42,12.03v41.17c0,5.33-3.93,9.91-9.04,10.63l-.29.04c-.42.05-.85.1-1.28.12-1.31.08-2.63.04-4-.14h-.06c-5.21-.74-9.15-5.32-9.15-10.65v-41.17c0-6.64-5.56-12.03-12.42-12.03s-12.42,5.39-12.42,12.03v41.17c0,17.2,13.07,32.01,30.41,34.45l.36.05s.05.01.08.01c.79.1,1.58.17,2.38.23.19.01.38.04.57.06.15.01.31,0,.46.02.83.04,1.66.08,2.48.08h0c.3,0,.59-.02.89-.03.69-.01,1.38-.02,2.07-.07.15-.01.31-.03.46-.04.83-.06,1.66-.13,2.48-.24.03,0,.05-.01.08-.01l.36-.05c17.34-2.44,30.41-17.26,30.41-34.45v-41.17c0-6.64-5.56-12.03-12.42-12.03Z"/>
    <path class="cls-2" d="M690.97,482.53c-6.86,0-12.42,5.39-12.42,12.03v41.17c0,5.33-3.93,9.91-9.04,10.63l-.29.04c-.42.05-.85.1-1.28.12-1.31.08-2.63.04-4-.14h-.06c-5.21-.74-9.15-5.32-9.15-10.65v-41.17c0-6.64-5.56-12.03-12.42-12.03s-12.42,5.39-12.42,12.03v41.17c0,17.2,13.07,32.01,30.41,34.45l.36.05s.05.01.08.01c.79.1,1.58.17,2.38.23.19.01.38.04.57.06.15.01.31,0,.46.02.83.04,1.66.08,2.48.08h0c.3,0,.59-.02.89-.03.69-.01,1.38-.02,2.07-.07.15-.01.31-.03.46-.04.83-.06,1.66-.13,2.48-.24.03,0,.05-.01.08-.01l.36-.05c17.34-2.44,30.41-17.26,30.41-34.45v-41.17c0-6.64-5.56-12.03-12.42-12.03Z"/>
    <path class="cls-2" d="M789.98,483.02l-.43-.06s-.07-.01-.1-.02c-.57-.07-1.14-.11-1.71-.16-2.38-.22-4.79-.27-7.2-.11-.05,0-.11.01-.16.02-.91.06-1.82.15-2.73.26-.03,0-.06.01-.08.02h0l-.36.05c-17.34,2.44-30.41,17.25-30.41,34.44v41.16c0,6.64,5.56,12.02,12.42,12.02s12.42-5.38,12.42-12.02v-25.59h23.82v25.59c0,6.64,5.56,12.02,12.42,12.02s12.42-5.38,12.42-12.02v-41.16c0-17.19-13.07-32-30.32-34.43ZM780.79,506.8l.19-.03s0,0,0,0c1.04-.13,2.08-.17,3.1-.15.26,0,.52,0,.78.03.42.03.85.07,1.26.12h0s.04,0,.06,0c.04,0,.09,0,.13.01h0c3.75.54,6.83,3.06,8.27,6.41h-22.06c1.44-3.35,4.52-5.87,8.27-6.4Z"/>
    <path class="cls-2" d="M725.48,550.17h-.77c-5.65,0-10.23,4.58-10.23,10.23s4.58,10.23,10.23,10.23h.77c5.65,0,10.23-4.58,10.23-10.23s-4.58-10.23-10.23-10.23Z"/>
  </g>
</svg>